<svg xmlns="http://www.w3.org/2000/svg" viewBox="0 0 160 200" width="160" height="200"><rect x="0" y="0" width="160" height="200" rx="0" fill="#fdf4ff"/><polygon points="160,0 130,0 160,30" fill="#a21caf"/><text x="80" y="22" font-family="&quot;Plus Jakarta Sans&quot;, Inter, sans-serif" font-size="12" font-weight="700" fill="#581c87" text-anchor="middle">Jane Doe</text><text x="80" y="32" font-family="&quot;Plus Jakarta Sans&quot;, Inter, sans-serif" font-size="5" font-weight="500" fill="#a78bfa" text-anchor="middle">Senior Portfolio lead</text><line x1="40" y1="38" x2="120" y2="38" stroke="#a21caf" stroke-width="1.5"/><rect x="14" y="44" width="63" height="9" rx="4" fill="#f5d0fe"/><text x="20" y="50" font-family="&quot;Plus Jakarta Sans&quot;, Inter, sans-serif" font-size="6" font-weight="700" fill="#a21caf" >Featured projects</text><rect x="14" y="53" width="26" height="2" rx="1" fill="#a21caf"/><rect x="14" y="58" width="41" height="24" rx="3" fill="#f5d0fe"/><rect x="59" y="58" width="41" height="24" rx="3" fill="#f5d0fe"/><rect x="104" y="58" width="41" height="24" rx="3" fill="#f5d0fe"/><rect x="14" y="82" width="42" height="9" rx="4" fill="#f5d0fe"/><text x="20" y="88" font-family="&quot;Plus Jakarta Sans&quot;, Inter, sans-serif" font-size="6" font-weight="700" fill="#a21caf" >Experience</text><rect x="14" y="91" width="26" height="2" rx="1" fill="#a21caf"/><rect x="14" y="96" width="132" height="2" rx="1" fill="#a78bfa"/><rect x="14" y="101" width="114" height="2" rx="1" fill="#f5d0fe"/><rect x="14" y="106" width="132" height="2" rx="1" fill="#f5d0fe"/><rect x="14" y="111" width="114" height="2" rx="1" fill="#f5d0fe"/><rect x="14" y="120" width="30" height="9" rx="4" fill="#f5d0fe"/><text x="20" y="126" font-family="&quot;Plus Jakarta Sans&quot;, Inter, sans-serif" font-size="6" font-weight="700" fill="#a21caf" >Skills</text><rect x="14" y="132" width="14" height="5" rx="2" fill="#f5d0fe"/><rect x="31" y="132" width="20" height="5" rx="2" fill="#f5d0fe"/><rect x="54" y="132" width="26" height="5" rx="2" fill="#f5d0fe"/><rect x="83" y="132" width="14" height="5" rx="2" fill="#f5d0fe"/></svg>
