<svg xmlns="http://www.w3.org/2000/svg" viewBox="0 0 160 200" width="160" height="200"><rect x="0" y="0" width="160" height="200" rx="0" fill="#ffffff"/><rect x="0" y="0" width="160" height="32" rx="0" fill="#e0f2fe"/><text x="14" y="18" font-family="Inter, sans-serif" font-size="12" font-weight="800" fill="#0f172a" >Jane Doe</text><text x="14" y="27" font-family="Inter, sans-serif" font-size="5" font-weight="500" fill="#0f172a" >Senior Modern lead</text><rect x="14" y="50" width="42" height="9" rx="4" fill="#e0f2fe"/><text x="20" y="56" font-family="Inter, sans-serif" font-size="6" font-weight="700" fill="#0ea5e9" >Experience</text><rect x="14" y="59" width="26" height="2" rx="1" fill="#0ea5e9"/><rect x="14" y="64" width="132" height="2" rx="1" fill="#94a3b8"/><rect x="14" y="69" width="114" height="2" rx="1" fill="#e0f2fe"/><rect x="14" y="74" width="132" height="2" rx="1" fill="#e0f2fe"/><rect x="14" y="79" width="114" height="2" rx="1" fill="#e0f2fe"/><rect x="14" y="80" width="39" height="9" rx="4" fill="#e0f2fe"/><text x="20" y="86" font-family="Inter, sans-serif" font-size="6" font-weight="700" fill="#0ea5e9" >Education</text><rect x="14" y="89" width="26" height="2" rx="1" fill="#0ea5e9"/><rect x="14" y="94" width="132" height="2" rx="1" fill="#94a3b8"/><rect x="14" y="99" width="114" height="2" rx="1" fill="#e0f2fe"/><rect x="14" y="104" width="132" height="2" rx="1" fill="#e0f2fe"/><rect x="14" y="109" width="114" height="2" rx="1" fill="#e0f2fe"/><rect x="14" y="110" width="30" height="9" rx="4" fill="#e0f2fe"/><text x="20" y="116" font-family="Inter, sans-serif" font-size="6" font-weight="700" fill="#0ea5e9" >Skills</text><rect x="14" y="119" width="26" height="2" rx="1" fill="#0ea5e9"/><rect x="14" y="124" width="14" height="5" rx="2" fill="#e0f2fe"/><rect x="31" y="124" width="20" height="5" rx="2" fill="#e0f2fe"/><rect x="54" y="124" width="26" height="5" rx="2" fill="#e0f2fe"/><rect x="83" y="124" width="14" height="5" rx="2" fill="#e0f2fe"/><rect x="100" y="124" width="20" height="5" rx="2" fill="#e0f2fe"/></svg>
