<svg xmlns="http://www.w3.org/2000/svg" viewBox="0 0 160 200" width="160" height="200"><rect x="0" y="0" width="160" height="200" rx="0" fill="#fdfdfb"/><text x="80" y="22" font-family="Georgia, serif" font-size="12" font-weight="700" fill="#1f2937" text-anchor="middle">Jane Doe</text><text x="80" y="32" font-family="Georgia, serif" font-size="5" font-weight="500" fill="#94a3b8" text-anchor="middle">Senior Academic lead</text><line x1="40" y1="38" x2="120" y2="38" stroke="#7f1d1d" stroke-width="1.5"/><text x="14" y="52" font-family="Georgia, serif" font-size="6" font-weight="700" fill="#1f2937" >Experience</text><line x1="14" y1="55" x2="146" y2="55" stroke="#1f2937" stroke-width="0.7"/><line x1="14" y1="58" x2="146" y2="58" stroke="#1f2937" stroke-width="0.7"/><rect x="14" y="60" width="132" height="2" rx="1" fill="#94a3b8"/><rect x="14" y="65" width="114" height="2" rx="1" fill="#fee2e2"/><rect x="14" y="70" width="132" height="2" rx="1" fill="#fee2e2"/><rect x="14" y="75" width="114" height="2" rx="1" fill="#fee2e2"/><text x="14" y="82" font-family="Georgia, serif" font-size="6" font-weight="700" fill="#1f2937" >Education</text><line x1="14" y1="85" x2="146" y2="85" stroke="#1f2937" stroke-width="0.7"/><line x1="14" y1="88" x2="146" y2="88" stroke="#1f2937" stroke-width="0.7"/><rect x="14" y="90" width="132" height="2" rx="1" fill="#94a3b8"/><rect x="14" y="95" width="114" height="2" rx="1" fill="#fee2e2"/><rect x="14" y="100" width="132" height="2" rx="1" fill="#fee2e2"/><rect x="14" y="105" width="114" height="2" rx="1" fill="#fee2e2"/><text x="14" y="112" font-family="Georgia, serif" font-size="6" font-weight="700" fill="#1f2937" >Skills</text><line x1="14" y1="115" x2="146" y2="115" stroke="#1f2937" stroke-width="0.7"/><line x1="14" y1="118" x2="146" y2="118" stroke="#1f2937" stroke-width="0.7"/><rect x="14" y="120" width="14" height="5" rx="2" fill="#fee2e2"/><rect x="31" y="120" width="20" height="5" rx="2" fill="#fee2e2"/><rect x="54" y="120" width="26" height="5" rx="2" fill="#fee2e2"/><rect x="83" y="120" width="14" height="5" rx="2" fill="#fee2e2"/><rect x="100" y="120" width="20" height="5" rx="2" fill="#fee2e2"/></svg>
