<svg xmlns="http://www.w3.org/2000/svg" viewBox="0 0 600 500" preserveAspectRatio="xMidYMid slice">
  <defs>
    <linearGradient id="bg" x1="0" y1="0" x2="1" y2="1">
      <stop offset="0%" stop-color="#0b1f2a"/>
      <stop offset="100%" stop-color="#0e3346"/>
    </linearGradient>
    <radialGradient id="g1" cx="0.8" cy="0.2" r="0.6">
      <stop offset="0%" stop-color="#06b6d4" stop-opacity="0.65"/>
      <stop offset="100%" stop-color="#06b6d4" stop-opacity="0"/>
    </radialGradient>
    <radialGradient id="g2" cx="0.15" cy="0.85" r="0.55">
      <stop offset="0%" stop-color="#0ea5e9" stop-opacity="0.5"/>
      <stop offset="100%" stop-color="#0ea5e9" stop-opacity="0"/>
    </radialGradient>
    <linearGradient id="line" x1="0" x2="1">
      <stop offset="0%" stop-color="#22d3ee" stop-opacity="0.9"/>
      <stop offset="100%" stop-color="#67e8f9" stop-opacity="0.4"/>
    </linearGradient>
  </defs>
  <rect width="600" height="500" fill="url(#bg)"/>
  <rect width="600" height="500" fill="url(#g1)"/>
  <rect width="600" height="500" fill="url(#g2)"/>
  <g opacity="0.18" stroke="#fff" stroke-dasharray="2 6" stroke-width="1">
    <line x1="60" y1="380" x2="540" y2="380"/>
    <line x1="60" y1="300" x2="540" y2="300"/>
    <line x1="60" y1="220" x2="540" y2="220"/>
    <line x1="60" y1="140" x2="540" y2="140"/>
  </g>
  <path d="M60 360 L140 320 L220 340 L300 240 L380 270 L460 170 L540 200" stroke="url(#line)" stroke-width="3" fill="none" stroke-linecap="round" stroke-linejoin="round"/>
  <path d="M60 360 L140 320 L220 340 L300 240 L380 270 L460 170 L540 200 L540 420 L60 420 Z" fill="#22d3ee" opacity="0.12"/>
  <g fill="#22d3ee">
    <circle cx="140" cy="320" r="4"/>
    <circle cx="300" cy="240" r="5"/>
    <circle cx="460" cy="170" r="5"/>
  </g>
</svg>
